# Blender 3.6.3
# www.blender.org
mtllib ROCKobj.mtl
o Icosphere
v 0.071518 -1.386975 0.087264
v 0.814638 -0.470323 0.575197
v -0.270459 -0.538548 0.850552
v -0.926897 -0.553175 -0.018733
v -0.276480 -0.483270 -0.859227
v 0.678451 -0.523042 -0.453372
v 0.714978 0.239131 1.245986
v -1.141278 -0.034083 0.650011
v -0.933624 -0.102595 -0.967728
v 0.415294 0.285090 -1.283503
v 1.197487 -0.075402 0.246089
v -0.063738 0.993332 0.127516
v -0.068325 -1.152830 0.497250
v 0.458124 -0.966104 0.341028
v 0.289410 -0.620420 0.813790
v 0.862461 -0.641817 0.100991
v 0.325869 -1.100915 -0.176899
v -0.403641 -1.022406 -0.039996
v -0.699290 -0.660054 0.498259
v -0.094591 -0.913230 -0.494007
v -0.585325 -0.610334 -0.609089
v 0.222669 -0.596873 -0.771297
v 1.158607 -0.180755 0.529137
v 1.102806 -0.243115 -0.184779
v 0.195474 -0.054254 1.343964
v 0.890105 -0.162629 1.011821
v -1.227656 -0.252814 0.355893
v -0.745766 -0.223901 0.858301
v -0.660064 -0.216334 -1.110489
v -1.048262 -0.292013 -0.425873
v 0.785208 -0.105575 -0.904485
v 0.023292 -0.077862 -1.255353
v 1.195262 0.142073 0.815267
v -0.359121 0.264472 1.346619
v -1.044466 0.128064 0.090127
v -0.377800 0.305773 -1.374780
v 0.809367 0.351076 -0.698950
v 0.327289 0.680032 0.817921
v 0.725614 0.587801 0.079760
v -0.836344 0.531490 0.765172
v -0.574830 0.499763 -0.450423
v 0.087344 0.479176 -0.648373
vn 0.4195 -0.7192 0.5538
vn 0.6994 -0.6467 0.3044
vn -0.6300 -0.7472 0.2118
vn -0.4469 -0.7517 -0.4850
vn 0.1593 -0.7425 -0.6507
vn 0.6351 -0.7037 0.3185
vn -0.0529 -0.6872 0.7245
vn -0.6258 -0.7713 0.1160
vn -0.1582 -0.7877 -0.5954
vn 0.4829 -0.6967 -0.5305
vn 0.6261 -0.6842 0.3740
vn -0.3218 -0.5058 0.8004
vn -0.7860 -0.5996 -0.1503
vn -0.0118 -0.6943 -0.7196
vn 0.6691 -0.6177 -0.4133
vn 0.4905 0.7895 0.3690
vn -0.6950 0.2365 0.6790
vn -0.7464 0.6297 -0.2155
vn 0.0556 0.9625 -0.2654
vn 0.8217 0.5638 -0.0830
vn 0.3845 0.8022 -0.4567
vn 0.1495 0.9504 -0.2728
vn 0.1561 0.9643 -0.2141
vn -0.1440 0.8118 -0.5660
vn -0.0330 0.9767 -0.2120
vn -0.6946 0.6598 -0.2865
vn -0.5949 0.7900 -0.1486
vn -0.7263 0.6651 -0.1736
vn -0.8789 0.4767 -0.0139
vn -0.1327 0.8721 0.4709
vn -0.1319 0.8553 0.5010
vn 0.0808 0.7300 0.6787
vn 0.4592 0.8775 0.1381
vn 0.5190 0.8365 0.1755
vn 0.8213 0.5340 -0.2008
vn 0.9339 0.2122 -0.2878
vn 0.9164 0.1230 -0.3809
vn 0.7993 0.2110 -0.5627
vn 0.1073 -0.1915 -0.9756
vn -0.1118 -0.4000 -0.9097
vn -0.5070 -0.1551 -0.8479
vn -0.9728 0.1830 -0.1418
vn -0.9300 0.2883 -0.2279
vn -0.9107 0.4112 -0.0384
vn -0.5577 -0.3230 0.7646
vn -0.3068 -0.5404 0.7834
vn 0.0958 0.1585 0.9827
vn 0.6414 -0.1580 0.7508
vn 0.7603 -0.4771 0.4408
vn 0.9823 -0.1738 0.0702
vn 0.3596 -0.4517 -0.8165
vn 0.3248 -0.5754 -0.7507
vn -0.0287 -0.6876 -0.7255
vn -0.5166 -0.7683 -0.3779
vn -0.6210 -0.6586 -0.4249
vn -0.6172 -0.7329 -0.2862
vn -0.5802 -0.5627 0.5889
vn -0.5855 -0.5523 0.5934
vn -0.3926 -0.6100 0.6883
vn 0.3597 -0.3478 0.8658
vn 0.2479 -0.6399 0.7273
vn 0.4328 -0.7704 0.4681
vn 0.9049 -0.4244 -0.0337
vn 0.8497 -0.5268 -0.0204
vn 0.6618 -0.6573 -0.3605
vn 0.5190 -0.6054 -0.6035
vn 0.1641 -0.7381 -0.6544
vn -0.0144 -0.6509 -0.7591
vn -0.2653 -0.6869 -0.6766
vn -0.3874 -0.8010 -0.4563
vn -0.6429 -0.7031 -0.3039
vn -0.6583 -0.7403 0.1368
vn -0.6042 -0.7740 0.1892
vn -0.4302 -0.5523 0.7141
vn 0.7071 -0.6059 -0.3645
vn 0.6385 -0.7687 0.0370
vn 0.7407 -0.6717 -0.0143
vn -0.0167 -0.5026 0.8643
vn 0.4189 -0.6552 0.6286
vn 0.4634 -0.6284 0.6248
vt 0.181819 0.000000
vt 0.227273 0.078731
vt 0.136365 0.078731
vt 0.272728 0.157461
vt 0.318182 0.078731
vt 0.363637 0.157461
vt 0.909091 0.000000
vt 0.954545 0.078731
vt 0.863636 0.078731
vt 0.727273 0.000000
vt 0.772727 0.078731
vt 0.681818 0.078731
vt 0.545455 0.000000
vt 0.590909 0.078731
vt 0.500000 0.078731
vt 0.318182 0.236191
vt 0.090910 0.157461
vt 0.181819 0.157461
vt 0.136365 0.236191
vt 0.818182 0.157461
vt 0.909091 0.157461
vt 0.863636 0.236191
vt 0.636364 0.157461
vt 0.727273 0.157461
vt 0.681818 0.236191
vt 0.454546 0.157461
vt 0.545455 0.157461
vt 0.500000 0.236191
vt 0.227273 0.236191
vt 0.045455 0.236191
vt 0.772727 0.236191
vt 0.590909 0.236191
vt 0.409092 0.236191
vt 0.181819 0.314921
vt 0.272728 0.314921
vt 0.227273 0.393651
vt 0.000000 0.314921
vt 0.090910 0.314921
vt 0.045455 0.393651
vt 0.727273 0.314921
vt 0.818182 0.314921
vt 0.772727 0.393651
vt 0.545455 0.314921
vt 0.636364 0.314921
vt 0.590909 0.393651
vt 0.363637 0.314921
vt 0.454546 0.314921
vt 0.409092 0.393651
vt 0.500000 0.393651
vt 0.454546 0.472382
vt 0.681818 0.393651
vt 0.636364 0.472382
vt 0.863636 0.393651
vt 0.818182 0.472382
vt 0.909091 0.314921
vt 0.136365 0.393651
vt 0.090910 0.472382
vt 0.318182 0.393651
vt 0.272728 0.472382
vt 0.954545 0.236191
vt 1.000000 0.157461
vt 0.409092 0.078731
vt 0.363637 0.000000
s 0
f 1/1/1 14/2/1 13/3/1
f 2/4/2 14/5/2 16/6/2
f 1/7/3 13/8/3 18/9/3
f 1/10/4 18/11/4 20/12/4
f 1/13/5 20/14/5 17/15/5
f 2/4/6 16/6/6 23/16/6
f 3/17/7 15/18/7 25/19/7
f 4/20/8 19/21/8 27/22/8
f 5/23/9 21/24/9 29/25/9
f 6/26/10 22/27/10 31/28/10
f 2/4/11 23/16/11 26/29/11
f 3/17/12 25/19/12 28/30/12
f 4/20/13 27/22/13 30/31/13
f 5/23/14 29/25/14 32/32/14
f 6/26/15 31/28/15 24/33/15
f 7/34/16 33/35/16 38/36/16
f 8/37/17 34/38/17 40/39/17
f 9/40/18 35/41/18 41/42/18
f 10/43/19 36/44/19 42/45/19
f 11/46/20 37/47/20 39/48/20
f 39/48/21 42/49/21 12/50/21
f 39/48/22 37/47/22 42/49/22
f 37/47/23 10/43/23 42/49/23
f 42/45/24 41/51/24 12/52/24
f 42/45/25 36/44/25 41/51/25
f 36/44/26 9/40/26 41/51/26
f 41/42/27 40/53/27 12/54/27
f 41/42/28 35/41/28 40/53/28
f 35/41/29 8/55/29 40/53/29
f 40/39/30 38/56/30 12/57/30
f 40/39/31 34/38/31 38/56/31
f 34/38/32 7/34/32 38/56/32
f 38/36/33 39/58/33 12/59/33
f 38/36/34 33/35/34 39/58/34
f 33/35/35 11/46/35 39/58/35
f 24/33/36 37/47/36 11/46/36
f 24/33/37 31/28/37 37/47/37
f 31/28/38 10/43/38 37/47/38
f 32/32/39 36/44/39 10/43/39
f 32/32/40 29/25/40 36/44/40
f 29/25/41 9/40/41 36/44/41
f 30/31/42 35/41/42 9/40/42
f 30/31/43 27/22/43 35/41/43
f 27/22/44 8/55/44 35/41/44
f 28/30/45 34/38/45 8/37/45
f 28/30/46 25/19/46 34/38/46
f 25/19/47 7/34/47 34/38/47
f 26/29/48 33/35/48 7/34/48
f 26/29/49 23/16/49 33/35/49
f 23/16/50 11/46/50 33/35/50
f 31/28/51 32/32/51 10/43/51
f 31/28/52 22/27/52 32/32/52
f 22/27/53 5/23/53 32/32/53
f 29/25/54 30/31/54 9/40/54
f 29/25/55 21/24/55 30/31/55
f 21/24/56 4/20/56 30/31/56
f 27/22/57 28/60/57 8/55/57
f 27/22/58 19/21/58 28/60/58
f 19/21/59 3/61/59 28/60/59
f 25/19/60 26/29/60 7/34/60
f 25/19/61 15/18/61 26/29/61
f 15/18/62 2/4/62 26/29/62
f 23/16/63 24/33/63 11/46/63
f 23/16/64 16/6/64 24/33/64
f 16/6/65 6/26/65 24/33/65
f 17/15/66 22/27/66 6/26/66
f 17/15/67 20/14/67 22/27/67
f 20/14/68 5/23/68 22/27/68
f 20/12/69 21/24/69 5/23/69
f 20/12/70 18/11/70 21/24/70
f 18/11/71 4/20/71 21/24/71
f 18/9/72 19/21/72 4/20/72
f 18/9/73 13/8/73 19/21/73
f 13/8/74 3/61/74 19/21/74
f 16/6/75 17/62/75 6/26/75
f 16/6/76 14/5/76 17/62/76
f 14/5/77 1/63/77 17/62/77
f 13/3/78 15/18/78 3/17/78
f 13/3/79 14/2/79 15/18/79
f 14/2/80 2/4/80 15/18/80
