# Blender 3.6.3
# www.blender.org
mtllib ROCK2obj.mtl
o Icosphere
v 0.071518 -1.386975 0.087264
v 0.814638 -0.470323 0.575197
v -0.270459 -0.538548 0.850552
v -0.926897 -0.553175 -0.018733
v -0.276480 -0.483270 -0.859227
v 0.678451 -0.523042 -0.453372
v 0.714978 0.239131 1.245986
v -1.141278 -0.034083 0.650011
v -0.933624 -0.102595 -0.967728
v 0.415294 0.285090 -1.283503
v 1.197487 -0.075402 0.246089
v -0.063738 0.993332 0.127516
v -0.068325 -1.152830 0.497250
v 0.458124 -0.966104 0.341028
v 0.289410 -0.620420 0.813790
v 0.862461 -0.641817 0.100991
v 0.325869 -1.100915 -0.176899
v -0.403641 -1.022406 -0.039996
v -0.699290 -0.660054 0.498259
v -0.094591 -0.913230 -0.494007
v -0.585325 -0.610334 -0.609089
v 0.222669 -0.596873 -0.771297
v 1.158607 -0.180755 0.529137
v 1.102806 -0.243115 -0.184779
v 0.195474 -0.054254 1.343964
v 0.890105 -0.162629 1.011821
v -1.227656 -0.252814 0.355893
v -0.745766 -0.223901 0.858301
v -0.660064 -0.216334 -1.110489
v -1.048262 -0.292013 -0.425873
v 0.785208 -0.105575 -0.904485
v 0.023292 -0.077862 -1.255353
v 1.195262 0.142073 0.815267
v -0.359121 0.264472 1.346619
v -1.044466 0.128064 0.090127
v -0.377800 0.305773 -1.374780
v 0.809367 0.351076 -0.698950
v 0.327289 0.680032 0.817921
v 0.725614 0.587801 0.079760
v -0.836344 0.531490 0.765172
v -0.574830 0.499763 -0.450423
v 0.087344 0.479176 -0.648373
vn 0.0546 -0.9983 -0.0219
vn 0.5856 -0.7222 0.3683
vn -0.1456 -0.7929 0.5917
vn 0.5749 -0.7040 0.4169
vn 0.7418 -0.6701 -0.0271
vn -0.5849 -0.7969 -0.1512
vn -0.1296 -0.7659 -0.6298
vn 0.5085 -0.7572 -0.4100
vn 0.8546 -0.4756 0.2084
vn -0.2578 -0.5751 0.7764
vn 0.2291 -0.6619 0.7137
vn 0.0452 -0.3358 0.9408
vn -0.6920 -0.7159 -0.0929
vn -0.5736 -0.6908 0.4402
vn -0.9563 -0.2514 0.1490
vn -0.0990 -0.7120 -0.6952
vn -0.4657 -0.7426 -0.4813
vn -0.3701 -0.5468 -0.7511
vn 0.6093 -0.6424 -0.4648
vn 0.2470 -0.6725 -0.6977
vn 0.7208 -0.2859 -0.6314
vn 0.5473 -0.5098 0.6638
vn -0.4860 -0.4892 0.7242
vn -0.9034 -0.3283 -0.2757
vn 0.1145 -0.4734 -0.8734
vn 0.9138 -0.2794 -0.2947
vn 0.4440 0.3283 0.8337
vn 0.8963 0.2529 0.3642
vn 0.2231 0.8783 0.4229
vn -0.8909 -0.0008 0.4542
vn -0.3111 0.2322 0.9216
vn -0.6327 0.6877 0.3561
vn -0.8520 -0.0678 -0.5192
vn -0.8590 0.4878 -0.1555
vn -0.5069 0.8095 -0.2961
vn 0.4016 0.4091 -0.8194
vn -0.2764 0.4638 -0.8417
vn 0.0831 0.9370 -0.3394
vn 0.9923 0.0534 -0.1120
vn 0.6721 0.6435 -0.3664
vn 0.5788 0.8086 -0.1057
vn -0.0363 0.9954 -0.0882
vt 0.181819 0.000000
vt 0.227273 0.078731
vt 0.136365 0.078731
vt 0.272728 0.157461
vt 0.318182 0.078731
vt 0.363637 0.157461
vt 0.909091 0.000000
vt 0.954545 0.078731
vt 0.863636 0.078731
vt 0.727273 0.000000
vt 0.772727 0.078731
vt 0.681818 0.078731
vt 0.545455 0.000000
vt 0.590909 0.078731
vt 0.500000 0.078731
vt 0.318182 0.236191
vt 0.090910 0.157461
vt 0.181819 0.157461
vt 0.136365 0.236191
vt 0.818182 0.157461
vt 0.909091 0.157461
vt 0.863636 0.236191
vt 0.636364 0.157461
vt 0.727273 0.157461
vt 0.681818 0.236191
vt 0.454546 0.157461
vt 0.545455 0.157461
vt 0.500000 0.236191
vt 0.227273 0.236191
vt 0.045455 0.236191
vt 0.772727 0.236191
vt 0.590909 0.236191
vt 0.409092 0.236191
vt 0.181819 0.314921
vt 0.272728 0.314921
vt 0.227273 0.393651
vt 0.000000 0.314921
vt 0.090910 0.314921
vt 0.045455 0.393651
vt 0.727273 0.314921
vt 0.818182 0.314921
vt 0.772727 0.393651
vt 0.545455 0.314921
vt 0.636364 0.314921
vt 0.590909 0.393651
vt 0.363637 0.314921
vt 0.454546 0.314921
vt 0.409092 0.393651
vt 0.500000 0.393651
vt 0.454546 0.472382
vt 0.681818 0.393651
vt 0.636364 0.472382
vt 0.863636 0.393651
vt 0.818182 0.472382
vt 0.909091 0.314921
vt 0.136365 0.393651
vt 0.090910 0.472382
vt 0.318182 0.393651
vt 0.272728 0.472382
vt 0.954545 0.236191
vt 1.000000 0.157461
vt 0.409092 0.078731
vt 0.363637 0.000000
s 1
f 1/1/1 14/2/2 13/3/3
f 2/4/4 14/5/2 16/6/5
f 1/7/1 13/8/3 18/9/6
f 1/10/1 18/11/6 20/12/7
f 1/13/1 20/14/7 17/15/8
f 2/4/4 16/6/5 23/16/9
f 3/17/10 15/18/11 25/19/12
f 4/20/13 19/21/14 27/22/15
f 5/23/16 21/24/17 29/25/18
f 6/26/19 22/27/20 31/28/21
f 2/4/4 23/16/9 26/29/22
f 3/17/10 25/19/12 28/30/23
f 4/20/13 27/22/15 30/31/24
f 5/23/16 29/25/18 32/32/25
f 6/26/19 31/28/21 24/33/26
f 7/34/27 33/35/28 38/36/29
f 8/37/30 34/38/31 40/39/32
f 9/40/33 35/41/34 41/42/35
f 10/43/36 36/44/37 42/45/38
f 11/46/39 37/47/40 39/48/41
f 39/48/41 42/49/38 12/50/42
f 39/48/41 37/47/40 42/49/38
f 37/47/40 10/43/36 42/49/38
f 42/45/38 41/51/35 12/52/42
f 42/45/38 36/44/37 41/51/35
f 36/44/37 9/40/33 41/51/35
f 41/42/35 40/53/32 12/54/42
f 41/42/35 35/41/34 40/53/32
f 35/41/34 8/55/30 40/53/32
f 40/39/32 38/56/29 12/57/42
f 40/39/32 34/38/31 38/56/29
f 34/38/31 7/34/27 38/56/29
f 38/36/29 39/58/41 12/59/42
f 38/36/29 33/35/28 39/58/41
f 33/35/28 11/46/39 39/58/41
f 24/33/26 37/47/40 11/46/39
f 24/33/26 31/28/21 37/47/40
f 31/28/21 10/43/36 37/47/40
f 32/32/25 36/44/37 10/43/36
f 32/32/25 29/25/18 36/44/37
f 29/25/18 9/40/33 36/44/37
f 30/31/24 35/41/34 9/40/33
f 30/31/24 27/22/15 35/41/34
f 27/22/15 8/55/30 35/41/34
f 28/30/23 34/38/31 8/37/30
f 28/30/23 25/19/12 34/38/31
f 25/19/12 7/34/27 34/38/31
f 26/29/22 33/35/28 7/34/27
f 26/29/22 23/16/9 33/35/28
f 23/16/9 11/46/39 33/35/28
f 31/28/21 32/32/25 10/43/36
f 31/28/21 22/27/20 32/32/25
f 22/27/20 5/23/16 32/32/25
f 29/25/18 30/31/24 9/40/33
f 29/25/18 21/24/17 30/31/24
f 21/24/17 4/20/13 30/31/24
f 27/22/15 28/60/23 8/55/30
f 27/22/15 19/21/14 28/60/23
f 19/21/14 3/61/10 28/60/23
f 25/19/12 26/29/22 7/34/27
f 25/19/12 15/18/11 26/29/22
f 15/18/11 2/4/4 26/29/22
f 23/16/9 24/33/26 11/46/39
f 23/16/9 16/6/5 24/33/26
f 16/6/5 6/26/19 24/33/26
f 17/15/8 22/27/20 6/26/19
f 17/15/8 20/14/7 22/27/20
f 20/14/7 5/23/16 22/27/20
f 20/12/7 21/24/17 5/23/16
f 20/12/7 18/11/6 21/24/17
f 18/11/6 4/20/13 21/24/17
f 18/9/6 19/21/14 4/20/13
f 18/9/6 13/8/3 19/21/14
f 13/8/3 3/61/10 19/21/14
f 16/6/5 17/62/8 6/26/19
f 16/6/5 14/5/2 17/62/8
f 14/5/2 1/63/1 17/62/8
f 13/3/3 15/18/11 3/17/10
f 13/3/3 14/2/2 15/18/11
f 14/2/2 2/4/4 15/18/11
